<svg width="110" height="35" viewBox="0 0 110 35" fill="none" xmlns="http://www.w3.org/2000/svg">
<path d="M22.1159 0H0.0149841V6.24783H21.7231C25.2278 6.24783 28.9894 7.47617 28.9894 12.3895C28.9894 17.136 26.2098 18.4099 21.0584 18.4099H18.6263V24.6577H22.2216C31.1647 24.6577 35.0018 18.4705 35.0018 12.3895C35.0018 5.9597 31.8294 0 22.1159 0Z" fill="white"/>
<path d="M0.0149841 0V9.44757L25.53 35H35.5607L0.0149841 0Z" fill="white"/>
<path opacity="0.15" d="M0.0149841 0L6.35974 6.24783H6.97911L0.0149841 0Z" fill="url(#paint0_linear_6120_13574)"/>
<path d="M19.0494 34.9997H10.1214L0 24.6574L0.0151066 18.4095H2.5228L19.0494 34.9997Z" fill="white"/>
<path opacity="0.15" d="M8.95813 18.4099H18.7019L18.3544 18.0612L8.95813 18.4099Z" fill="url(#paint1_linear_6120_13574)"/>
<path opacity="0.15" d="M15.0765 24.5361L24.8806 24.4451L25.3187 24.8848L15.0765 24.5361Z" fill="url(#paint2_linear_6120_13574)"/>
<path d="M19.7141 18.4095H0.0151066L0 24.6574L24.8805 24.4451" fill="white"/>
<path opacity="0.15" d="M0 24.6576L8.67117 24.5818L9.29054 25.2035L0 24.6576Z" fill="url(#paint3_linear_6120_13574)"/>
<path d="M45.5372 11.7975V15.8812H44.0814V6.55457H50.4746C51.4241 6.55457 52.1626 6.78853 52.7006 7.24582C53.2387 7.70311 53.5024 8.34119 53.5024 9.16007C53.5024 9.83005 53.2914 10.4043 52.8694 10.8829C52.4474 11.3721 51.8883 11.6699 51.2131 11.7762L53.7873 15.8918H52.2153L49.5884 11.7975H45.5372ZM45.5372 10.4362H50.4746C50.9704 10.4362 51.3608 10.3299 51.6245 10.1066C51.8883 9.88322 52.0254 9.57482 52.0254 9.16007C52.0254 8.75595 51.8883 8.43691 51.6245 8.22421C51.3608 8.01152 50.981 7.90517 50.4746 7.90517H45.5372V10.4362Z" fill="white"/>
<path d="M55.4045 15.8918L60.1761 6.55457H61.1049L65.9192 15.8918H64.35L63.1331 13.5151H58.1693L56.963 15.8918H55.4045ZM58.8098 12.2842H62.4819L60.6565 8.7085L58.8098 12.2842Z" fill="white"/>
<path d="M71.4582 15.8812V7.84758H67.5368V6.55457H76.8383V7.85818H72.9063V15.8918H71.4582V15.8812Z" fill="white"/>
<path d="M79.8939 11.5521V15.8918H78.4565V6.55457H79.8939V10.1834H86.331V6.55457H87.758V15.8918H86.331V11.5521H79.8939Z" fill="white"/>
<path d="M101.75 11.7975V15.8812H100.294V6.55457H106.687C107.637 6.55457 108.375 6.78853 108.913 7.24582C109.451 7.70311 109.715 8.34119 109.715 9.16007C109.715 9.83005 109.504 10.4043 109.082 10.8829C108.66 11.3721 108.101 11.6699 107.426 11.7762L110 15.8918H108.428L105.801 11.8081H101.75V11.7975ZM101.75 10.4362H106.687C107.183 10.4362 107.574 10.3299 107.837 10.1066C108.101 9.88322 108.238 9.57482 108.238 9.16007C108.238 8.75595 108.101 8.43691 107.837 8.22421C107.574 8.01152 107.194 7.90517 106.687 7.90517H101.75V10.4362Z" fill="white"/>
<path d="M44.0814 30.1007V20.7634H45.563V28.7532H52.574V30.1007H44.0814Z" fill="white"/>
<path d="M53.7867 30.1007L58.7419 20.7634H59.7064L64.7059 30.1007H63.0763L61.8126 27.7239H56.6579L55.4052 30.1007H53.7867ZM57.3119 26.4931H61.1253L59.2297 22.9174L57.3119 26.4931Z" fill="white"/>
<path d="M65.9191 30.1007V20.7634H71.6701C72.6161 20.7634 73.339 20.9549 73.828 21.3483C74.317 21.7418 74.5615 22.3161 74.5615 23.0712C74.5615 23.454 74.4871 23.7943 74.3276 24.0815C74.1788 24.3792 73.9556 24.6132 73.6579 24.8046C74.1788 25.0917 74.5721 25.4533 74.8272 25.8681C75.093 26.2935 75.2206 26.7614 75.2206 27.2825C75.2206 28.1545 74.9335 28.8352 74.3489 29.335C73.7642 29.8348 72.9669 30.0901 71.9464 30.0901H65.9191V30.1007ZM71.6275 22.114H67.386V24.3154H71.6594C72.1272 24.3154 72.478 24.2197 72.7118 24.0389C72.9457 23.8475 73.0732 23.5816 73.0732 23.2094C73.0732 22.8478 72.9563 22.5713 72.7118 22.3905C72.478 22.1991 72.1165 22.114 71.6275 22.114ZM72.1272 25.6873H67.3967V28.7607H72.1272C72.6374 28.7607 73.0307 28.6225 73.3177 28.3566C73.5941 28.0907 73.743 27.7079 73.743 27.2187C73.743 26.7401 73.6048 26.3573 73.3177 26.0914C73.0307 25.8149 72.6374 25.6873 72.1272 25.6873Z" fill="white"/>
<path d="M76.8387 28.9805L77.5509 27.7269C78.1887 28.1738 78.8903 28.5118 79.6557 28.7625C80.4105 29.0133 81.144 29.1332 81.8349 29.1332C82.6641 29.1332 83.3444 28.9587 83.8547 28.6099C84.3649 28.2611 84.62 27.8141 84.62 27.269C84.62 26.724 84.3862 26.3206 83.9185 26.0481C83.4507 25.7864 82.7172 25.6338 81.7074 25.6011C80.0065 25.5793 78.8372 25.3722 78.1994 24.9906C77.5615 24.6091 77.2426 23.9768 77.2426 23.0938C77.2426 22.2653 77.5934 21.6112 78.2844 21.1097C78.986 20.6083 79.9215 20.3575 81.0908 20.3575C81.8987 20.3575 82.6747 20.4775 83.4295 20.7064C84.1842 20.9353 84.9177 21.2842 85.6193 21.742L84.8858 22.9848C84.3011 22.5814 83.674 22.2653 83.0043 22.0473C82.3345 21.8292 81.6861 21.7202 81.0802 21.7202C80.3679 21.7202 79.8045 21.851 79.3687 22.1018C78.9329 22.3525 78.7202 22.6904 78.7202 23.1047C78.7202 23.5298 78.9329 23.8351 79.3687 24.0095C79.8045 24.1839 80.5593 24.282 81.6329 24.282C83.1212 24.282 84.248 24.5437 85.0027 25.056C85.7575 25.5684 86.1402 26.3424 86.1402 27.3562C86.1402 28.2611 85.7575 29.0133 84.9815 29.6128C84.2055 30.2124 83.2169 30.5067 81.9837 30.5067C81.0802 30.5067 80.1766 30.3759 79.2837 30.1034C78.412 29.8418 77.5828 29.4602 76.8387 28.9805Z" fill="white"/>
<path d="M89.3753 15.8812V6.55457H98.2677V7.92177H90.861V10.2534H95.7163V11.5994H90.861V14.5458H98.6768V15.8918H89.3753V15.8812Z" fill="white"/>
<defs>
<linearGradient id="paint0_linear_6120_13574" x1="0.00984923" y1="3.12317" x2="6.97287" y2="3.12317" gradientUnits="userSpaceOnUse">
<stop stop-color="#0C0C0C"/>
<stop offset="1"/>
</linearGradient>
<linearGradient id="paint1_linear_6120_13574" x1="8.95417" y1="18.2317" x2="18.7063" y2="18.2317" gradientUnits="userSpaceOnUse">
<stop stop-color="#0C0C0C"/>
<stop offset="1"/>
</linearGradient>
<linearGradient id="paint2_linear_6120_13574" x1="15.0722" y1="24.6691" x2="25.3213" y2="24.6691" gradientUnits="userSpaceOnUse">
<stop stop-color="#0C0C0C"/>
<stop offset="1"/>
</linearGradient>
<linearGradient id="paint3_linear_6120_13574" x1="0" y1="24.8885" x2="9.28578" y2="24.8885" gradientUnits="userSpaceOnUse">
<stop stop-color="#0C0C0C"/>
<stop offset="1"/>
</linearGradient>
</defs>
</svg>
